<?xml version="1.0" encoding="utf-8"?>
<!-- Generator: Adobe Illustrator 19.1.0, SVG Export Plug-In . SVG Version: 6.00 Build 0)  -->
<svg version="1.1" id="Layer_1" xmlns="http://www.w3.org/2000/svg" xmlns:xlink="http://www.w3.org/1999/xlink" x="0px" y="0px"
	 viewBox="0 0 167.5 100.3" style="enable-background:new 0 0 167.5 100.3;" xml:space="preserve">
<style type="text/css">
	.st0{fill:#BBBDBF;}
</style>
<path class="st0" d="M0,33.6h5.9V21.5c0,0,1.1-15.6,15.2-15.2h108.4c0,0,13.6-0.4,15.6,13.7v16.3l13.1,13.1L145.2,62v16.3
	c0,0,0.7,12.1-11.5,15c0,0-4.5,1.1-12.3,1.1v5.8h9.3c0,0,18.9-0.9,20.8-20.1V64.6l16-15.1l-15.6-15.7v-13c0,0-0.7-19.7-21.9-20.8
	H19.7C19.7,0,0.9,0,0,21.2V33.6z"/>
</svg>
